# xmcd
#
# Track frame offsets:
#	150
#	13069
#	24229
#	36914
#	48982
#	66848
#	79648
#	93075
#	104780
#	116253
#	129490
#	141561
#	154916
#	166622
#	180268
#	193759
#	207240
#	219839
#	230659
#	243406
#
# Disc length: 3425 seconds
#
# Revision: 0
# Processed by: cddbd v1.5.2PL0 Copyright (c) Steve Scherf et al.
# Submitted via: audiograbber 1.83.01
#
DISCID=0a0d5f14
DTITLE=Blues - 100 Blues Tunes 4
DYEAR=1965
DGENRE=Blues
TTITLE0=Eartha Kitt - The Blues
TTITLE1=Big Bill Broonzy - All by my self
TTITLE2=Dinah Washington - Wise woman blues
TTITLE3=Ivory Joe Hunter - Fals friend blues
TTITLE4=June Christy - A Stranger called the blues
TTITLE5=Sonny Boy Williamson - Miss Stella Brown
TTITLE6=Roy Milton and His Solid Senders - Rm Blues
TTITLE7=Bobby Bland - Army blues
TTITLE8=Edgar Blanchard and The Gondoliers - Creole gai blues
TTITLE9=Lil Green - Why don't you do right
TTITLE10=Bukka White - Parchman farm blues
TTITLE11=Ida Cox and All Star Band - Hard time blues
TTITLE12=Danny Taylor - Coffee daddy blues
TTITLE13=Floyd Dixon - Bad neighbourhood
TTITLE14=Roy Brown - Double crossing woman
TTITLE15=Billy Wright - Stacked deck
TTITLE16=Mercy Dee - One room country shack
TTITLE17=Blow-Top Lynn and His House Rockers - Reliefin' blues
TTITLE18=Lost John Hunter - Schoolboy
TTITLE19=Blind Boy Fuller - Worn out engine blues
EXTD=
EXTT0=
EXTT1=
EXTT2=
EXTT3=
EXTT4=
EXTT5=
EXTT6=
EXTT7=
EXTT8=
EXTT9=
EXTT10=
EXTT11=
EXTT12=
EXTT13=
EXTT14=
EXTT15=
EXTT16=
EXTT17=
EXTT18=
EXTT19=
PLAYORDER=
